<?xml version="1.0" encoding="UTF-8"?>
<svg version="1.1" xmlns="http://www.w3.org/2000/svg" width="512" height="512">
<path d="M0 0 C1.65011078 0.00173721 1.65011078 0.00173721 3.33355713 0.00350952 C22.52022212 0.04348247 40.99641058 0.76985354 59.64819336 5.61791992 C62.11088697 6.24522437 64.57406269 6.79876363 67.0625 7.3125 C71.63117877 8.31874541 75.96624813 9.75829113 80.375 11.3125 C81.71861235 11.77513953 83.06237612 12.23733944 84.40625 12.69921875 C94.1455682 16.066668 103.48279947 19.74677504 112.6484375 24.48046875 C114.54675326 25.44028954 114.54675326 25.44028954 117.375 26.3125 C117.375 26.9725 117.375 27.6325 117.375 28.3125 C118.07882812 28.40917969 118.78265625 28.50585938 119.5078125 28.60546875 C122.87303805 29.4353132 125.2891659 30.82927335 128.25 32.625 C129.29414063 33.25148437 130.33828125 33.87796875 131.4140625 34.5234375 C132.39117187 35.11382812 133.36828125 35.70421875 134.375 36.3125 C135.78856595 37.13038264 137.20455876 37.94411701 138.625 38.75 C139.5325 39.265625 140.44 39.78125 141.375 40.3125 C141.375 40.9725 141.375 41.6325 141.375 42.3125 C142.08269531 42.55871094 142.79039062 42.80492187 143.51953125 43.05859375 C146.74160701 44.47348612 149.25189478 46.2622531 152.0625 48.375 C155.57807017 51.07170044 155.57807017 51.07170044 159.375 53.3125 C159.375 53.9725 159.375 54.6325 159.375 55.3125 C160.055625 55.51875 160.73625 55.725 161.4375 55.9375 C165.29139375 57.74145027 168.45287764 60.2135345 171.375 63.3125 C171.375 63.9725 171.375 64.6325 171.375 65.3125 C171.95475586 65.56773438 172.53451172 65.82296875 173.13183594 66.0859375 C175.60515312 67.43834777 177.27102109 68.94982524 179.265625 70.9375 C180.32910156 71.99710938 180.32910156 71.99710938 181.4140625 73.078125 C182.14367187 73.81546875 182.87328125 74.5528125 183.625 75.3125 C184.37007813 76.04984375 185.11515625 76.7871875 185.8828125 77.546875 C186.58664062 78.25328125 187.29046875 78.9596875 188.015625 79.6875 C188.66047852 80.33460937 189.30533203 80.98171875 189.96972656 81.6484375 C191.375 83.3125 191.375 83.3125 191.375 85.3125 C192.035 85.3125 192.695 85.3125 193.375 85.3125 C195.3203125 87.4296875 195.3203125 87.4296875 197.5 90.1875 C198.22445313 91.09242187 198.94890625 91.99734375 199.6953125 92.9296875 C201.375 95.3125 201.375 95.3125 201.375 97.3125 C202.035 97.3125 202.695 97.3125 203.375 97.3125 C203.7771875 98.2096875 203.7771875 98.2096875 204.1875 99.125 C205.23246228 101.30410732 205.23246228 101.30410732 206.75 102.6640625 C208.64521421 104.58661153 210.06479876 106.63029715 211.5625 108.875 C212.09230469 109.66003906 212.62210937 110.44507812 213.16796875 111.25390625 C214.375 113.3125 214.375 113.3125 214.375 115.3125 C215.035 115.3125 215.695 115.3125 216.375 115.3125 C222.234375 125.56640625 222.234375 125.56640625 223.29492188 127.43408203 C224.02767421 128.70844831 224.774302 129.97491711 225.53320312 131.23388672 C228.375 135.99652778 228.375 135.99652778 228.375 139.3125 C229.035 139.3125 229.695 139.3125 230.375 139.3125 C235.98705884 151.65902944 241.17279827 164.11822467 245.3203125 177.03515625 C246.15711816 179.63545237 247.05999307 182.18678522 248 184.75 C249.61398537 189.53724473 250.43324854 194.49862632 251.28564453 199.46655273 C251.82200983 202.5584736 252.43946628 205.52463978 253.35253906 208.52929688 C254.45513963 212.6090243 255.05021504 216.51723311 255.48046875 220.7109375 C255.56435349 221.52670258 255.64823822 222.34246765 255.73466492 223.18295288 C256.75130991 234.082198 256.72225854 245.00017925 256.6875 255.9375 C256.68667419 257.03591217 256.68584839 258.13432434 256.68499756 259.26602173 C256.65348152 277.46620256 256.61444201 295.73034083 251.375 313.3125 C250.87732978 315.60021964 250.39815347 317.89204031 249.9375 320.1875 C248.75799958 325.75217275 247.30545674 330.97345437 245.375 336.3125 C244.94737575 337.5788062 244.52179197 338.84580233 244.09765625 340.11328125 C241.18171035 348.72835077 237.85816995 356.95532956 233.890625 365.140625 C232.60318577 367.83495658 231.44357887 370.52581393 230.375 373.3125 C229.715 373.3125 229.055 373.3125 228.375 373.3125 C228.27832031 374.01632812 228.18164062 374.72015625 228.08203125 375.4453125 C227.2521868 378.81053805 225.85822665 381.2266659 224.0625 384.1875 C223.43601562 385.23164063 222.80953125 386.27578125 222.1640625 387.3515625 C221.57367188 388.32867187 220.98328125 389.30578125 220.375 390.3125 C219.55711736 391.72606595 218.74338299 393.14205876 217.9375 394.5625 C217.421875 395.47 216.90625 396.3775 216.375 397.3125 C215.715 397.3125 215.055 397.3125 214.375 397.3125 C214.148125 397.9725 213.92125 398.6325 213.6875 399.3125 C211.37095965 404.60744938 208.49080858 409.25401466 204.375 413.3125 C204.045 413.9725 203.715 414.6325 203.375 415.3125 C202.715 415.3125 202.055 415.3125 201.375 415.3125 C201.065625 416.3334375 201.065625 416.3334375 200.75 417.375 C198.94604973 421.22889375 196.4739655 424.39037764 193.375 427.3125 C192.715 427.3125 192.055 427.3125 191.375 427.3125 C190.99214844 428.18213379 190.99214844 428.18213379 190.6015625 429.06933594 C189.24915223 431.54265312 187.73767476 433.20852109 185.75 435.203125 C185.04359375 435.91210938 184.3371875 436.62109375 183.609375 437.3515625 C182.87203125 438.08117187 182.1346875 438.81078125 181.375 439.5625 C180.63765625 440.30757813 179.9003125 441.05265625 179.140625 441.8203125 C178.43421875 442.52414062 177.7278125 443.22796875 177 443.953125 C176.35289062 444.59797852 175.70578125 445.24283203 175.0390625 445.90722656 C173.375 447.3125 173.375 447.3125 171.375 447.3125 C171.375 447.9725 171.375 448.6325 171.375 449.3125 C169.2578125 451.2578125 169.2578125 451.2578125 166.5 453.4375 C165.59507812 454.16195313 164.69015625 454.88640625 163.7578125 455.6328125 C161.375 457.3125 161.375 457.3125 159.375 457.3125 C159.375 457.9725 159.375 458.6325 159.375 459.3125 C158.776875 459.580625 158.17875 459.84875 157.5625 460.125 C155.38339268 461.16996228 155.38339268 461.16996228 154.0234375 462.6875 C152.10088847 464.58271421 150.05720285 466.00229876 147.8125 467.5 C147.02746094 468.02980469 146.24242187 468.55960937 145.43359375 469.10546875 C143.375 470.3125 143.375 470.3125 141.375 470.3125 C141.375 470.9725 141.375 471.6325 141.375 472.3125 C131.12109375 478.171875 131.12109375 478.171875 129.25341797 479.23242188 C127.97905169 479.96517421 126.71258289 480.711802 125.45361328 481.47070312 C120.69097222 484.3125 120.69097222 484.3125 117.375 484.3125 C117.375 484.9725 117.375 485.6325 117.375 486.3125 C103.94872489 492.41535232 90.41390118 497.79999605 76.375 502.3125 C74.8746545 502.85320893 73.37460237 503.39473347 71.875 503.9375 C66.74412867 505.66077177 61.43004929 506.57203045 56.12109375 507.56640625 C53.62011091 508.06451649 51.13331349 508.63988791 48.66748047 509.29003906 C34.02047885 512.96754148 18.46306404 512.65832655 3.47045898 512.62817383 C0.2084789 512.62502028 -3.05258454 512.64855754 -6.31445312 512.67382812 C-23.07047454 512.72409067 -40.50516077 512.33383705 -56.625 507.3125 C-58.91271964 506.81482978 -61.20454031 506.33565347 -63.5 505.875 C-69.06399396 504.69564346 -74.28768511 503.24677502 -79.625 501.3125 C-80.93823499 500.86162611 -82.25210082 500.4125877 -83.56640625 499.96484375 C-106.7790672 492.00436561 -106.7790672 492.00436561 -108.625 488.3125 C-110.6164056 487.93116701 -112.61779077 487.59924418 -114.625 487.3125 C-115.285 486.9825 -115.945 486.6525 -116.625 486.3125 C-116.625 485.6525 -116.625 484.9925 -116.625 484.3125 C-117.841875 483.9825 -119.05875 483.6525 -120.3125 483.3125 C-127.03177769 481.10840573 -132.71234024 477.0959236 -138.625 473.3125 C-139.285 472.9825 -139.945 472.6525 -140.625 472.3125 C-140.625 471.6525 -140.625 470.9925 -140.625 470.3125 C-141.615 469.9721875 -141.615 469.9721875 -142.625 469.625 C-152.665 465.2325 -152.665 465.2325 -154.625 461.3125 C-156.64169827 460.17899466 -156.64169827 460.17899466 -158.625 459.3125 C-158.625 458.6525 -158.625 457.9925 -158.625 457.3125 C-160.275 456.6525 -161.925 455.9925 -163.625 455.3125 C-163.625 454.6525 -163.625 453.9925 -163.625 453.3125 C-164.20636719 453.03664063 -164.78773438 452.76078125 -165.38671875 452.4765625 C-171.58370836 449.25369531 -176.31460173 444.80129444 -180.75 439.47265625 C-183.60577627 436.18256401 -186.75859238 433.20785555 -189.90234375 430.1953125 C-191.625 428.3125 -191.625 428.3125 -191.625 426.3125 C-192.285 426.3125 -192.945 426.3125 -193.625 426.3125 C-194.285 424.6625 -194.945 423.0125 -195.625 421.3125 C-196.285 421.3125 -196.945 421.3125 -197.625 421.3125 C-198.6314275 419.64970673 -199.63085407 417.98266516 -200.625 416.3125 C-201.615 415.6525 -202.605 414.9925 -203.625 414.3125 C-204.12 412.8275 -204.12 412.8275 -204.625 411.3125 C-205.60701122 410.29482915 -206.60902277 409.29626332 -207.625 408.3125 C-209.74877736 405.39713289 -211.66122512 402.33731229 -213.625 399.3125 C-214.30949219 398.28769531 -214.99398437 397.26289063 -215.69921875 396.20703125 C-219.99788948 389.72198402 -223.95358394 383.11140778 -227.625 376.25 C-228.01083252 375.53585937 -228.39666504 374.82171875 -228.79418945 374.0859375 C-230.6712523 370.51074122 -232.11799107 367.37649343 -232.625 363.3125 C-233.285 363.3125 -233.945 363.3125 -234.625 363.3125 C-234.89763672 362.45978516 -234.89763672 362.45978516 -235.17578125 361.58984375 C-235.42714844 360.81769531 -235.67851562 360.04554688 -235.9375 359.25 C-236.30294922 358.11884766 -236.30294922 358.11884766 -236.67578125 356.96484375 C-237.40332369 354.93191653 -238.22174657 352.93132043 -239.078125 350.94921875 C-241.39850581 345.49398004 -243.1800775 339.87077185 -245.00195312 334.23486328 C-245.58223264 332.44445541 -246.17349666 330.65761795 -246.765625 328.87109375 C-248.76682529 322.66587941 -250.24087868 316.62603203 -251.1328125 310.1640625 C-251.57999538 307.22759252 -251.57999538 307.22759252 -252.58666992 304.1262207 C-256.41096942 290.07981053 -255.96965295 274.97529863 -255.94067383 260.53833008 C-255.93752747 257.2784634 -255.96102443 254.0195202 -255.98632812 250.75976562 C-256.04307922 231.51381248 -254.84805081 211.9263354 -249.625 193.3125 C-249.40408691 192.50264648 -249.18317383 191.69279297 -248.95556641 190.85839844 C-248.1883217 188.04867124 -247.40947565 185.24246354 -246.625 182.4375 C-246.37580811 181.54450195 -246.12661621 180.65150391 -245.86987305 179.73144531 C-244.43538051 174.72694236 -242.75216341 170.06164826 -240.625 165.3125 C-239.82401853 163.21186149 -239.03218821 161.10770849 -238.25 159 C-236.32424357 153.94051264 -234.15581026 149.12752461 -231.640625 144.3359375 C-230.50789496 142.19943301 -230.50789496 142.19943301 -229.625 139.3125 C-228.965 139.3125 -228.305 139.3125 -227.625 139.3125 C-227.52832031 138.60867187 -227.43164062 137.90484375 -227.33203125 137.1796875 C-226.5021868 133.81446195 -225.10822665 131.3983341 -223.3125 128.4375 C-222.68601563 127.39335938 -222.05953125 126.34921875 -221.4140625 125.2734375 C-220.82367188 124.29632813 -220.23328125 123.31921875 -219.625 122.3125 C-218.80711736 120.89893405 -217.99338299 119.48294124 -217.1875 118.0625 C-216.4140625 116.70125 -216.4140625 116.70125 -215.625 115.3125 C-214.965 115.3125 -214.305 115.3125 -213.625 115.3125 C-213.3878125 114.62800781 -213.150625 113.94351563 -212.90625 113.23828125 C-211.35991106 109.70715972 -209.32119934 106.64695017 -207.125 103.5 C-206.72152344 102.90251953 -206.31804687 102.30503906 -205.90234375 101.68945312 C-204.86460218 100.19106389 -203.75024203 98.74634386 -202.625 97.3125 C-201.965 97.3125 -201.305 97.3125 -200.625 97.3125 C-199.965 95.6625 -199.305 94.0125 -198.625 92.3125 C-197.965 92.3125 -197.305 92.3125 -196.625 92.3125 C-196.41230469 91.78140625 -196.19960937 91.2503125 -195.98046875 90.703125 C-194.1026508 87.39123858 -191.54524534 84.80236367 -188.9375 82.0625 C-187.84789819 80.90594577 -186.75935228 79.74839584 -185.671875 78.58984375 C-185.14658203 78.03022949 -184.62128906 77.47061523 -184.08007812 76.89404297 C-182.21105136 74.86257394 -180.44945458 72.74948064 -178.6875 70.625 C-176.27909617 67.82109848 -174.32454035 66.20935827 -170.625 65.3125 C-170.625 64.6525 -170.625 63.9925 -170.625 63.3125 C-167.16346154 60.3125 -167.16346154 60.3125 -164.625 60.3125 C-164.625 59.6525 -164.625 58.9925 -164.625 58.3125 C-163.4184375 57.9103125 -163.4184375 57.9103125 -162.1875 57.5 C-161.341875 57.108125 -160.49625 56.71625 -159.625 56.3125 C-159.295 55.3225 -158.965 54.3325 -158.625 53.3125 C-156.0625 52.125 -156.0625 52.125 -153.625 51.3125 C-153.625 50.6525 -153.625 49.9925 -153.625 49.3125 C-149.24038462 46.3125 -149.24038462 46.3125 -146.625 46.3125 C-146.625 45.6525 -146.625 44.9925 -146.625 44.3125 C-144.645 43.6525 -142.665 42.9925 -140.625 42.3125 C-140.625 41.6525 -140.625 40.9925 -140.625 40.3125 C-137.19353286 38.30201049 -133.75389088 36.30594755 -130.3125 34.3125 C-129.33603516 33.74015625 -128.35957031 33.1678125 -127.35351562 32.578125 C-126.41572266 32.03671875 -125.47792969 31.4953125 -124.51171875 30.9375 C-123.21560669 30.18339844 -123.21560669 30.18339844 -121.89331055 29.4140625 C-119.625 28.3125 -119.625 28.3125 -116.625 28.3125 C-116.625 27.6525 -116.625 26.9925 -116.625 26.3125 C-111.1801898 23.83997749 -105.7013153 21.4986417 -100.13671875 19.30859375 C-98.52873696 18.67090268 -96.92644206 18.01855824 -95.33203125 17.34765625 C-89.40804026 14.87684594 -83.3842382 12.91825574 -77.24560547 11.06274414 C-74.47968101 10.22370848 -71.76998067 9.37309564 -69.1015625 8.2578125 C-65.88989095 7.03190632 -62.68934948 6.44716834 -59.3125 5.8125 C-55.47061213 5.0859765 -51.69237116 4.33027167 -47.91088867 3.33276367 C-32.39785037 -0.56271401 -15.87079601 -0.05175811 0 0 Z " fill="#FF7800" transform="translate(255.625,-0.3125)"/>
<path d="M0 0 C0.495 20.295 0.495 20.295 1 41 C1.66 39.68 2.32 38.36 3 37 C3.66 37 4.32 37 5 37 C5.061875 36.443125 5.12375 35.88625 5.1875 35.3125 C6.3476371 32.01057134 8.45559795 30.37092009 11 28 C12.2684375 26.7315625 12.2684375 26.7315625 13.5625 25.4375 C14.366875 24.633125 15.17125 23.82875 16 23 C16.598125 22.34 17.19625 21.68 17.8125 21 C20.42612978 18.61039563 23.24058397 16.92663568 26.29296875 15.1484375 C28.15586422 14.09866896 28.15586422 14.09866896 29 12 C31.03390222 11.1183514 33.1035775 10.31836342 35.1875 9.5625 C39.62579291 7.94442521 43.7789354 6.11339598 48 4 C49.6081473 3.41017795 51.23360024 2.86472911 52.875 2.375 C53.65617187 2.13523438 54.43734375 1.89546875 55.2421875 1.6484375 C72.36054875 -2.37655962 95.29404003 -2.30988064 111 6 C111.83273438 6.40605469 112.66546875 6.81210938 113.5234375 7.23046875 C118.46199488 9.64042543 123.26149598 12.21870416 128 15 C128 15.66 128 16.32 128 17 C128.73734375 17.25910156 129.4746875 17.51820313 130.234375 17.78515625 C138.78820483 21.5425589 145.85014128 30.44397051 151 38 C152.25390625 41.3359375 152.25390625 41.3359375 153 44 C153.66 44 154.32 44 155 44 C166.99433602 66.54935172 169.7118153 88.9684812 165 114 C165.73347656 113.26523437 166.46695313 112.53046875 167.22265625 111.7734375 C168.8918111 110.10663027 170.56500786 108.44383574 172.24609375 106.7890625 C175.67842678 103.39955716 179.04896401 100.03178212 182.125 96.3125 C184.57506438 93.36972294 187.27100047 91.02435049 190.21875 88.59375 C192.14398174 86.87117423 193.76933963 85.03396225 195.4375 83.0625 C198.91532419 78.97881051 202.66895232 75.18605807 207 72 C207.66 72 208.32 72 209 72 C209.23485107 71.43772705 209.46970215 70.8754541 209.71166992 70.29614258 C211.31017512 67.44718646 213.27076336 65.53933571 215.61328125 63.26171875 C216.53173828 62.35873047 217.45019531 61.45574219 218.39648438 60.52539062 C219.84989334 59.1091295 221.30507807 57.6947117 222.76049805 56.28051758 C227.54361664 51.62127597 232.07335413 47.17724948 235.77075195 41.60864258 C237.76187729 39.00297727 240.25997682 37.040443 242.76074219 34.9375 C247.09709661 31.18550385 251.08138097 27.06180622 255.125 23 C255.99253906 22.13632813 256.86007812 21.27265625 257.75390625 20.3828125 C261.93904055 16.19130813 265.98925592 11.96651625 269.79248047 7.42529297 C271.26582303 5.68623638 272.80958482 4.09133137 274.5 2.5625 C275.0259375 2.06878906 275.551875 1.57507813 276.09375 1.06640625 C278 0 278 0 284 0 C284 39.27 284 78.54 284 119 C296.21 119 308.42 119 321 119 C321 127.58 321 136.16 321 145 C308.79 145 296.58 145 284 145 C284 157.54 284 170.08 284 183 C273.44 183 262.88 183 252 183 C252 170.79 252 158.58 252 146 C238.70818721 145.90468078 225.41804798 145.85176264 212.12590027 145.87302971 C205.95342748 145.88121998 199.7821409 145.87098985 193.60986328 145.81835938 C187.65060362 145.76822799 181.69312845 145.76688003 175.73376465 145.79904556 C173.4628108 145.80279055 171.19175769 145.78909516 168.92102051 145.75750351 C156.84295906 145.09116865 156.84295906 145.09116865 145.95849609 149.16558838 C143.81496332 151.72126161 143.81496332 151.72126161 142.41870117 154.46389771 C140.73212565 157.47885824 138.75909167 158.96389304 136 161 C135.34 161.680625 134.68 162.36125 134 163.0625 C131.80365371 165.19021047 129.66890022 166.51038127 127 168 C125.989375 168.598125 124.97875 169.19625 123.9375 169.8125 C122.62902764 170.54886972 121.31589611 171.27698016 120 172 C119.11054688 172.48984375 118.22109375 172.9796875 117.3046875 173.484375 C109.00407143 177.86224562 100.52871154 181.31128277 91 181 C91 181.66 91 182.32 91 183 C81.76 183 72.52 183 63 183 C63 182.34 63 181.68 63 181 C62.07380859 180.92652344 62.07380859 180.92652344 61.12890625 180.8515625 C53.09092253 180.14196881 45.88960069 179.4164107 39 175 C36.97125516 174.22465791 34.93147724 173.51845949 32.8671875 172.84375 C30.73644775 171.88090526 29.61437821 170.67034332 28 169 C26.906875 168.4225 25.81375 167.845 24.6875 167.25 C21.13335697 165.29709194 18.93353213 162.88851068 16.421875 159.7421875 C15.07698646 158.09432957 13.66576827 156.65036425 12.125 155.1875 C10 153 10 153 10 151 C9.443125 150.79375 8.88625 150.5875 8.3125 150.375 C6 149 6 149 1 143 C0.67 156.2 0.34 169.4 0 183 C-10.56 183 -21.12 183 -32 183 C-32 133.17 -32 83.34 -32 32 C-42.23 32 -52.46 32 -63 32 C-63 30 -63 30 -60.79980469 27.74731445 C-59.87586914 26.84070068 -58.95193359 25.93408691 -58 25 C-56.38693597 23.02576454 -54.78881566 21.0392569 -53.203125 19.04296875 C-36.40194817 -1.06289505 -26.42780455 -2.7644147 0 0 Z " fill="#FFD4AF" transform="translate(128,164)"/>
<path d="M0 0 C0 39.27 0 78.54 0 119 C12.21 119 24.42 119 37 119 C37 127.58 37 136.16 37 145 C24.79 145 12.58 145 0 145 C0 157.54 0 170.08 0 183 C-10.56 183 -21.12 183 -32 183 C-32 170.13 -32 157.26 -32 144 C-69.95 144 -107.9 144 -147 144 C-146.505 143.01 -146.505 143.01 -146 142 C-145.34 142 -144.68 142 -144 142 C-144 141.34 -144 140.68 -144 140 C-143.34 140 -142.68 140 -142 140 C-141.7525 139.42765625 -141.505 138.8553125 -141.25 138.265625 C-139.80683801 135.64989389 -138.11783778 133.85226544 -136 131.75 C-135.29875 131.04359375 -134.5975 130.3371875 -133.875 129.609375 C-132 128 -132 128 -130 128 C-129.61908203 127.12601563 -129.61908203 127.12601563 -129.23046875 126.234375 C-127.86679667 123.75811967 -126.35774797 122.19479374 -124.3125 120.25 C-121.57844817 117.58984146 -118.98112784 114.89750102 -116.5 112 C-113.46444573 108.46658717 -110.22736491 105.20504032 -106.90625 101.94140625 C-105.14738391 100.15010206 -103.53579674 98.30910909 -101.9375 96.375 C-99.96479826 94.01308954 -97.93662444 92.0198337 -95.5625 90.0625 C-92.94848512 87.90708422 -90.75110577 85.64903409 -88.5625 83.0625 C-85.08467581 78.97881051 -81.33104768 75.18605807 -77 72 C-76.34 72 -75.68 72 -75 72 C-74.64772339 71.15659058 -74.64772339 71.15659058 -74.28833008 70.29614258 C-72.68982488 67.44718646 -70.72923664 65.53933571 -68.38671875 63.26171875 C-67.46826172 62.35873047 -66.54980469 61.45574219 -65.60351562 60.52539062 C-64.15010666 59.1091295 -62.69492193 57.6947117 -61.23950195 56.28051758 C-56.45638336 51.62127597 -51.92664587 47.17724948 -48.22924805 41.60864258 C-46.23812271 39.00297727 -43.74002318 37.040443 -41.23925781 34.9375 C-36.90290339 31.18550385 -32.91861903 27.06180622 -28.875 23 C-28.00746094 22.13632813 -27.13992188 21.27265625 -26.24609375 20.3828125 C-22.06095945 16.19130813 -18.01074408 11.96651625 -14.20751953 7.42529297 C-12.73417697 5.68623638 -11.19041518 4.09133137 -9.5 2.5625 C-8.9740625 2.06878906 -8.448125 1.57507813 -7.90625 1.06640625 C-6 0 -6 0 0 0 Z " fill="#FFFDFC" transform="translate(412,164)"/>
<path d="M0 0 C0.495 1.485 0.495 1.485 1 3 C1.969375 3.04125 2.93875 3.0825 3.9375 3.125 C9.00988673 3.82141375 13.16434262 6.72099131 17 10 C17 10.66 17 11.32 17 12 C17.71800781 12.20496094 18.43601562 12.40992188 19.17578125 12.62109375 C22.79747343 14.38936116 24.81759791 16.90964386 27.1875 20.0625 C27.85048096 20.93007935 27.85048096 20.93007935 28.52685547 21.81518555 C31.89150738 26.41498704 33.41726619 30.26978425 34 36 C34.66 36 35.32 36 36 36 C40.0642465 49.54748834 39.80275498 64.37922308 36 78 C35.34 78 34.68 78 34 78 C33.9175 78.825 33.835 79.65 33.75 80.5 C32.413857 86.73533402 29.8207666 91.76356875 25 96 C24.175 96.825 23.35 97.65 22.5 98.5 C21.675 99.325 20.85 100.15 20 101 C19.278125 101.763125 18.55625 102.52625 17.8125 103.3125 C16 105 16 105 14 105 C14 105.66 14 106.32 14 107 C11.35261084 108.4606285 10.10551666 109 7 109 C6.505 110.485 6.505 110.485 6 112 C4.22509766 112.79956055 4.22509766 112.79956055 1.9140625 113.38671875 C1.07085449 113.60320068 0.22764648 113.81968262 -0.64111328 114.04272461 C-1.5432959 114.25550049 -2.44547852 114.46827637 -3.375 114.6875 C-4.28878418 114.90736572 -5.20256836 115.12723145 -6.14404297 115.35375977 C-19.29974729 118.37430948 -30.54187782 117.07553126 -43 112 C-43 111.34 -43 110.68 -43 110 C-45.31 109.34 -47.62 108.68 -50 108 C-50 107.34 -50 106.68 -50 106 C-50.99 106 -51.98 106 -53 106 C-53 105.34 -53 104.68 -53 104 C-53.70125 103.79375 -54.4025 103.5875 -55.125 103.375 C-58.80173359 101.6165622 -61.47295079 99.19571859 -64 96 C-64 95.34 -64 94.68 -64 94 C-64.66 94 -65.32 94 -66 94 C-75.18209766 82.90277911 -77.17548263 71.92960106 -77.125 57.9375 C-77.12886719 56.86177734 -77.13273438 55.78605469 -77.13671875 54.67773438 C-77.13542969 53.63810547 -77.13414062 52.59847656 -77.1328125 51.52734375 C-77.13168457 50.58624756 -77.13055664 49.64515137 -77.12939453 48.67553711 C-77.00109965 46.02273786 -76.59013202 43.58585655 -76 41 C-75.34 41 -74.68 41 -74 41 C-73.896875 39.80375 -73.79375 38.6075 -73.6875 37.375 C-72.90488817 28.29670282 -65.44336835 18.71679477 -58.75 12.875 C-56.36413137 11.24827139 -54.83881504 10.32755558 -52 10 C-52 9.34 -52 8.68 -52 8 C-47.07763176 3.61330125 -41.23682911 2.03926147 -34.9296875 0.67578125 C-31.96140846 0.05257855 -31.96140846 0.05257855 -29.046875 -1.06640625 C-19.8107546 -3.89644827 -9.27194676 -1.9019378 0 0 Z " fill="#FF7801" transform="translate(224,198)"/>
<path d="M0 0 C0 14.19 0 28.38 0 43 C0.99 43.495 0.99 43.495 2 44 C0.48274651 48.01846839 -1.39114469 51.75505717 -3.375 55.5625 C-12.67361565 73.82401505 -15.56809182 96.10569861 -9.38085938 115.98974609 C-6.41802891 124.89720565 -6.41802891 124.89720565 -1.92236328 133.07495117 C0.76361635 137.7431145 0.50522587 142.26394932 0.390625 147.52734375 C0.38496521 148.51626114 0.37930542 149.50517853 0.37347412 150.52406311 C0.35120015 153.66238143 0.30101998 156.79953057 0.25 159.9375 C0.22992342 162.07355114 0.21167468 164.2096203 0.1953125 166.34570312 C0.15477732 171.56460774 0.07646879 176.78100536 0 182 C-10.23 182 -20.46 182 -31 182 C-31 132.5 -31 83 -31 32 C-41.23 32 -51.46 32 -62 32 C-62 30 -62 30 -59.80200195 27.74731445 C-58.87734131 26.84070068 -57.95268066 25.93408691 -57 25 C-55.37571997 23.0254346 -53.76585718 21.03895139 -52.16796875 19.04296875 C-35.58371397 -0.68571459 -26.03594698 -2.81774318 0 0 Z " fill="#FFFDFD" transform="translate(127,164)"/>
<path d="M0 0 C0.83273438 0.40605469 1.66546875 0.81210938 2.5234375 1.23046875 C7.46199488 3.64042543 12.26149598 6.21870416 17 9 C17 9.66 17 10.32 17 11 C17.73734375 11.25910156 18.4746875 11.51820313 19.234375 11.78515625 C27.78820483 15.5425589 34.85014128 24.44397051 40 32 C41.25390625 35.3359375 41.25390625 35.3359375 42 38 C42.66 38 43.32 38 44 38 C51.66472659 52.409686 57.31583192 67.4143977 56 84 C55 85 55 85 52.13256836 85.11352539 C50.88096924 85.10828857 49.62937012 85.10305176 48.33984375 85.09765625 C47.34314415 85.09553383 47.34314415 85.09553383 46.3263092 85.09336853 C44.19666101 85.08775518 42.06711661 85.07520054 39.9375 85.0625 C38.49674631 85.05748671 37.05599097 85.05292351 35.61523438 85.04882812 C32.07678898 85.03778145 28.53840461 85.02050792 25 85 C24.8669043 83.95062256 24.73380859 82.90124512 24.59667969 81.82006836 C23.65961908 74.47927523 22.59955614 67.23203576 21 60 C20.34 60 19.68 60 19 60 C18.72027344 59.17757812 18.44054687 58.35515625 18.15234375 57.5078125 C15.37202058 49.76581935 12.08960776 43.45227162 7 37 C6.50886719 36.36835938 6.01773438 35.73671875 5.51171875 35.0859375 C3.13525635 32.09699913 3.13525635 32.09699913 0 30 C0 29.34 0 28.68 0 28 C-0.57878906 27.72671875 -1.15757812 27.4534375 -1.75390625 27.171875 C-3.97343941 26.0138577 -5.90184625 24.70348022 -7.9375 23.25 C-23.39895259 12.86620015 -41.71981414 7.93865124 -60.25 10.6875 C-66.63744304 11.98426484 -72.82055551 13.94804706 -79 16 C-79.93070313 16.30550781 -80.86140625 16.61101562 -81.8203125 16.92578125 C-83.88325612 17.60804003 -85.94218178 18.3024345 -88 19 C-88 19.66 -88 20.32 -88 21 C-89.46875 22.04296875 -89.46875 22.04296875 -91.5 23.1875 C-95.54276384 25.58587145 -98.83959246 28.41129587 -102.23828125 31.64453125 C-104 33 -104 33 -107 33 C-105.70738073 27.94703375 -103.83736676 25.48040241 -100 22 C-99.154375 21.154375 -98.30875 20.30875 -97.4375 19.4375 C-96.633125 18.633125 -95.82875 17.82875 -95 17 C-94.401875 16.34 -93.80375 15.68 -93.1875 15 C-90.57387022 12.61039563 -87.75941603 10.92663568 -84.70703125 9.1484375 C-82.84413578 8.09866896 -82.84413578 8.09866896 -82 6 C-79.96609778 5.1183514 -77.8964225 4.31836342 -75.8125 3.5625 C-71.37420709 1.94442521 -67.2210646 0.11339598 -63 -2 C-61.3918527 -2.58982205 -59.76639976 -3.13527089 -58.125 -3.625 C-57.34382813 -3.86476562 -56.56265625 -4.10453125 -55.7578125 -4.3515625 C-38.63945125 -8.37655962 -15.70595997 -8.30988064 0 0 Z " fill="#FFFCFA" transform="translate(239,170)"/>
<path d="M0 0 C0 17.82 0 35.64 0 54 C-17.16 54 -34.32 54 -52 54 C-51.67 52.68 -51.34 51.36 -51 50 C-49.515 49.505 -49.515 49.505 -48 49 C-47.31658518 47.67517307 -46.65306211 46.34004929 -46 45 C-44.60318161 43.42536521 -43.14768306 41.90208261 -41.65795898 40.41503906 C-40.7604039 39.51440735 -39.86284882 38.61377563 -38.93809509 37.68585205 C-37.95760846 36.71226124 -36.97693697 35.73885657 -35.99609375 34.765625 C-34.99207206 33.76279579 -33.98842016 32.75959623 -32.98512268 31.75604248 C-30.88582091 29.65830228 -28.78320894 27.56395797 -26.67797852 25.47216797 C-23.97356819 22.78480182 -21.27584254 20.09084461 -18.58032131 17.39456558 C-16.51063778 15.32515323 -14.43836418 13.25835158 -12.36519051 11.19243622 C-11.3689867 10.19942322 -10.37339501 9.20579576 -9.37841606 8.21155548 C-7.99234338 6.82763889 -6.60258996 5.4474117 -5.21264648 4.06738281 C-4.42147934 3.28002747 -3.63031219 2.49267212 -2.81517029 1.68145752 C-1 0 -1 0 0 0 Z " fill="#FF7A05" transform="translate(380,229)"/>
<path d="M0 0 C0.66 0.33 1.32 0.66 2 1 C1.67 1.33 1.34 1.66 1 2 C25.255 2.495 25.255 2.495 50 3 C50 3.66 50 4.32 50 5 C32.84 5 15.68 5 -2 5 C-1 1 -1 1 0 0 Z " fill="#FFAF68" transform="translate(330,278)"/>
<path d="M0 0 C0.66 0 1.32 0 2 0 C2 0.99 2 1.98 2 3 C2.66 3 3.32 3 4 3 C8.07497171 17.00771526 8.66311496 29.44774407 7 44 C6.34 44 5.68 44 5 44 C5.12568359 42.49373047 5.12568359 42.49373047 5.25390625 40.95703125 C6.1397474 29.44392648 5.57099125 18.44579338 4 7 C3.34 7 2.68 7 2 7 C1.34 4.69 0.68 2.38 0 0 Z " fill="#FFAE65" transform="translate(256,227)"/>
<path d="M0 0 C0.33 0 0.66 0 1 0 C1.33 13.53 1.66 27.06 2 41 C2.99 39.68 3.98 38.36 5 37 C5 37.66 5 38.32 5 39 C5.66 39.33 6.32 39.66 7 40 C4.525 42.475 4.525 42.475 2 45 C0.09206919 43.40915225 -0.91069342 42.54094332 -1.32279968 40.04475403 C-1.29837296 39.30529037 -1.27394623 38.56582672 -1.2487793 37.80395508 C-1.22853195 36.96331009 -1.20828461 36.1226651 -1.18742371 35.25654602 C-1.15006607 34.35333115 -1.11270844 33.45011627 -1.07421875 32.51953125 C-1.04777786 31.59154221 -1.02133698 30.66355316 -0.99409485 29.70744324 C-0.90628355 26.74181123 -0.79715105 23.77739709 -0.6875 20.8125 C-0.62424626 18.8027781 -0.56238004 16.79301201 -0.50195312 14.78320312 C-0.35073471 9.85481153 -0.18039041 4.92740661 0 0 Z " fill="#FFE3CA" transform="translate(127,164)"/>
<path d="M0 0 C0.66 0.33 1.32 0.66 2 1 C-1.96 4.96 -5.92 8.92 -10 13 C-10 9.07575145 -8.73405902 8.22546662 -6.125 5.375 C-5.04605469 4.18003906 -5.04605469 4.18003906 -3.9453125 2.9609375 C-2 1 -2 1 0 0 Z " fill="#FF912E" transform="translate(168,209)"/>
<path d="M0 0 C0.66 0 1.32 0 2 0 C2 0.99 2 1.98 2 3 C2.66 3 3.32 3 4 3 C4.508783 4.55966218 5.00663469 6.12289241 5.5 7.6875 C5.7784375 8.55761719 6.056875 9.42773438 6.34375 10.32421875 C6.99850805 12.99391677 7.11831495 15.26396684 7 18 C4.43383368 14.15075052 4.44902324 11.5650696 4 7 C3.34 7 2.68 7 2 7 C1.34 4.69 0.68 2.38 0 0 Z " fill="#FFBD83" transform="translate(256,227)"/>
<path d="M0 0 C0.33 0.66 0.66 1.32 1 2 C1.66 2.33 2.32 2.66 3 3 C1.35 4.65 -0.3 6.3 -2 8 C-2.99 7.01 -3.98 6.02 -5 5 C-4.360625 4.731875 -3.72125 4.46375 -3.0625 4.1875 C-0.66868314 3.11332248 -0.66868314 3.11332248 0 0 Z " fill="#FFEEE0" transform="translate(131,201)"/>
</svg>
